# xmcd
# Track frame offsets:
# 150
# 18440
# 34748
# 50215
# 67992
# 85603
# 105257
# 123557
# 140040
# 153760
# 172387
# 192200
#
# Disc length: 2762 seconds
# Revision: 0
# Processed by: cddbd v1.4PL0 Copyright (c) Steve Scherf et al.
# Submitted via: VisiTrax 2.9.5.180 - For more info visit www.synapsa.com
#
DISCID=a00ac80c
DTITLE=Suzanne Laughlin - Bad boy blues
DYEAR=2000
DGENRE=
TTITLE0=Bad boy blues
TTITLE1=Outta my mind (in love with you)
TTITLE2=Tailgatin' me
TTITLE3=I'll be good
TTITLE4=Love again
TTITLE5=Angel ees
TTITLE6=Little lone star
TTITLE7=Can he still love me
TTITLE8=Givin' up on love
TTITLE9=Used to turn you on
TTITLE10=One more time
TTITLE11=If I'd never met you
EXTD=
EXTT0=
EXTT1=
EXTT2=
EXTT3=
EXTT4=
EXTT5=
EXTT6=
EXTT7=
EXTT8=
EXTT9=
EXTT10=
EXTT11=
PLAYORDER=
